
        <svg xmlns="http://www.w3.org/2000/svg" xmlns:xlink="http://www.w3.org/1999/xlink" version="1.1" width="3162.2002820874472" height="704.2266894331959" viewBox="0 0 3162.2002820874472 704.2266894331959">
			
			<g transform="scale(8.110014104372356) translate(10, 10)">
				<defs id="SvgjsDefs1177"/><g id="SvgjsG1178" featureKey="Ez5wPW-0" transform="matrix(0.8462945523068207,0,0,0.8462945523068207,-4.068138048529903,4.600275440880459)" fill="#fff"><g xmlns="http://www.w3.org/2000/svg"><path d="M59.664,73.066l8.688-33.634l-0.75,0.693l-2.323,8.995l-0.463,0.43l-5.783,22.387l-0.234-0.301l7.932-30.704l-0.749,0.692   l-2.324,8.999l-0.464,0.43l-5.225,20.229l-0.156-0.604l7.334-28.392l-0.396-0.671l-2.715,10.512l-0.465,0.43l-4.39,16.996   l-0.234-0.303l7.341-28.418l-0.396-0.672l-3.479,13.471l-0.464,0.43l-3.83,14.83l-0.156-0.604l7.469-28.91l-0.396-0.672   l-4.244,16.429l-0.462,0.428L55.329,67.17l-0.234-0.301l7.477-28.944l-0.397-0.672l-5.007,19.387l-0.465,0.43l-2.436,9.434   l-0.157-0.605l7.602-29.428l-0.396-0.671l-5.772,22.347l-0.463,0.428l-1.604,6.211l-0.234-0.303l7.611-29.467l-0.396-0.671   L53.92,59.65l-0.463,0.43l-1.043,4.033l-0.155-0.604l7.736-29.948l-0.397-0.672l-7.3,28.264l-0.463,0.43L51.623,62.4l-0.233-0.303   l7.746-29.991l-0.396-0.671l-8.001,30.972l-0.333-1.287l7.871-30.468l-0.396-0.673l-7.846,30.375l-0.498-0.641l7.881-30.516   l-0.396-0.673l-8.134,31.496l-0.333-1.289l8.004-30.989l-0.396-0.672l-7.982,30.899l-0.498-0.641l7.968-30.848L55.6,26.468   l-0.913,1.549l-7.65,29.614l-0.333-1.289l6.801-26.324l-1.014,1.716L46.33,55.586l-0.497-0.641l5.48-21.215L50.3,35.446   l-5.114,19.798l-0.333-1.287l4.264-16.505l-1.014,1.717l-3.625,14.035l-0.498-0.643l2.944-11.395l-1.014,1.718l-2.576,9.972   l-0.332-1.285l1.727-6.687l-1.014,1.718l-1.09,4.218l-0.498-0.642l0.407-1.576l-1.014,1.718l-0.038,0.147l-0.433-1.676l-0.854-1.1   l1.002,3.877l-0.332,1.287l-1.665-6.446l-0.854-1.1l1.866,7.225l-0.461,0.781l-2.4-9.288l-0.854-1.1l2.857,11.061l-0.029,0.047   l-0.311,1.205L35.503,41.65l-0.854-1.1l4.08,15.795l-0.332,1.285l-0.332-1.285l0.08-0.309l-0.111,0.188l-4.378-16.953l-0.854-1.1   l4.836,18.724l-0.462,0.783l-5.08-19.666l-0.428,0.55l5.211,20.172l-0.332,1.283L31.17,39.205l-0.429,0.552l5.179,20.05   l-0.461,0.781l-5.216-20.19l-0.428,0.552l5.247,20.312l-0.125,0.211l-0.242,0.936l-5.377-20.819l-0.428,0.55l5.521,21.373   l-0.333,1.287l-0.333-1.287l0.01-0.037l-0.014,0.023l-5.351-20.716l-0.428,0.551l5.382,20.837l-0.46,0.779l-5.419-20.976   l-0.428,0.551l5.521,21.375l-0.333,1.289l-5.688-22.021l-0.428,0.551l5.83,22.574l-0.332,1.283l-0.332-1.285l0.284-1.098   l-0.395,0.668l-5.554-21.501l-0.428,0.552l5.585,21.622l-0.223,0.379l-0.172,0.668l-5.689-22.027l-0.428,0.551l5.832,22.58   l-0.331,1.281l-5.999-23.22l-0.428,0.551l5.72,22.146l-0.462,0.783l-5.757-22.288l-0.428,0.551l5.833,22.583l-0.12,0.463h0.57h0   h0.239l-0.12-0.463l0.332-1.287l0.332,1.285l-0.12,0.465h0.57h0h0.24l-0.12-0.465l0.331-1.279l0.332,1.283l-0.119,0.461h0.57h0   h0.238l-0.119-0.461l0.333-1.289l0.333,1.287l-0.12,0.463h0.57l0,0h0.24l-0.12-0.465l0.331-1.281l0.332,1.285l-0.119,0.461h0.57h0   h0.238l-0.12-0.461l0.333-1.289l0.332,1.285l-0.12,0.465h0.57h0h0.24l-0.12-0.465l0.331-1.281l0.332,1.285l-0.119,0.461h0.57h0   h0.237l-0.119-0.461l0.333-1.287l0.332,1.285l-0.12,0.463h0.57h0h0.239l-0.12-0.463l0.332-1.283l0.332,1.285l-0.119,0.461h0.571   l0,0h0.238l-0.119-0.461l0.332-1.285l0.332,1.287l-0.03,0.113l-0.373,0.346h0.501h0h0.353l0,0h0.237l-0.119-0.461l0.333-1.283   l0.156,0.604l-0.295,1.141h0.571l0,0h0.352l0,0h0.237l-0.119-0.461l0.332-1.285l0.156,0.604l-0.295,1.143h0.57l0,0h0.35l0,0h0.241   l-0.12-0.465l0.333-1.285l0.157,0.607l-0.296,1.143h0.57l0,0H43.5l0,0h0.238L43.62,73.07l0.332-1.285l0.156,0.604l-0.295,1.143   h0.569l0,0h0.351l0,0h0.24l-0.12-0.465l0.332-1.285l0.157,0.609l-0.295,1.141h0.57l0,0h0.352l0,0h0.238l-0.118-0.461l0.332-1.285   l0.156,0.604l-0.295,1.143h0.569l0,0h0.351l0,0h0.24l-0.12-0.465l0.332-1.285l0.157,0.609l-0.295,1.141h0.57h0.351l0,0h0.239   l-0.119-0.463l0.332-1.285l0.156,0.604l-0.296,1.145H49.1h0.218h0.353l0,0h0.239l-0.119-0.463l0.332-1.287l0.156,0.605   l-0.296,1.145h0.352h0.218h0.353v-0.002h0.24l-0.12-0.463l0.332-1.285l0.156,0.607l-0.295,1.143h0.351h0.219h0.351v-0.002h0.24   l-0.119-0.463l0.331-1.285l0.157,0.605l-0.296,1.145h0.354h0.216h0.354v-0.002h0.237l-0.119-0.459l0.333-1.285l0.156,0.604   l-0.296,1.143h0.351h0.22h0.351v-0.002h0.239l-0.119-0.463l0.331-1.285l0.156,0.604l-0.296,1.146h0.353h0.217h0.353v-0.002h0.24   l-0.12-0.463l0.332-1.285l0.156,0.605l-0.296,1.145h0.569l0,0h0.354v-0.002h0.239l-0.12-0.463l0.332-1.285l0.156,0.605   l-0.296,1.145h0.57l0,0h0.353v-0.002h0.238l-0.119-0.463l0.332-1.285l0.156,0.605l-0.296,1.145h0.569l0,0h0.354v-0.002h0.239   L59.664,73.066z M55.216,67.611l-0.332,1.283l-0.156-0.604l0.332-1.283L55.216,67.611z M53.981,67.607l-0.332,1.285l-0.156-0.605   l0.331-1.285L53.981,67.607z M44.185,68.674l-0.377,0.35l-0.189-0.734l0.332-1.285l0.333,1.287L44.185,68.674z M42.717,69.574   l-0.332-1.281l0.332-1.285l0.331,1.281L42.717,69.574z M35.598,65.9l0.331-1.283l0.332,1.285l-0.331,1.283L35.598,65.9z    M35.645,68.289l-0.333,1.287l-0.332-1.285l0.333-1.287L35.645,68.289z M36.214,63.514l0.332-1.285l0.333,1.285l-0.333,1.285   L36.214,63.514z M36.546,67.008l0.333,1.285l-0.332,1.281l-0.332-1.285L36.546,67.008z M36.831,65.902l0.332-1.285l0.332,1.287   l-0.332,1.283L36.831,65.902z M50.563,66.504L50.407,65.9l0.333-1.285l0.156,0.604L50.563,66.504z M49.33,66.506l-0.157-0.607   l0.332-1.285l0.158,0.607L49.33,66.506z M49.051,64.164l-0.264,0.244l-0.231-0.895l0.332-1.285l0.332,1.281L49.051,64.164z    M48.428,65.221l-0.333,1.287l-0.156-0.605l0.333-1.285L48.428,65.221z M46.861,66.508L46.704,65.9l0.332-1.285l0.295,1.143   l-0.364,0.336L46.861,66.508z M47.654,64.801l-0.333-1.289l0.333-1.287l0.333,1.289L47.654,64.801z M47.037,62.408l-0.332-1.283   l0.332-1.287l0.333,1.283L47.037,62.408z M46.751,63.512l-0.332,1.285l-0.332-1.283l0.332-1.285L46.751,63.512z M45.806,67.172   L45.8,67.178l-0.33-1.277l0.332-1.283l0.332,1.283L45.806,67.172z M45.186,64.799l-0.333-1.289l0.332-1.285l0.333,1.289   L45.186,64.799z M45.803,62.41l-0.333-1.289l0.332-1.285l0.333,1.289L45.803,62.41z M45.185,60.018l-0.331-1.281l0.333-1.285   l0.331,1.281L45.185,60.018z M44.899,61.121l-0.332,1.285l-0.332-1.281l0.332-1.285L44.899,61.121z M40.534,61.125l0.332-1.283   l0.332,1.283l-0.332,1.285L40.534,61.125z M40.581,63.514l-0.332,1.285l-0.332-1.285l0.332-1.285L40.581,63.514z M41.483,62.23   l0.332,1.283l-0.332,1.285l-0.332-1.285L41.483,62.23z M41.769,61.125L42.1,59.84l0.332,1.285L42.1,62.41L41.769,61.125z    M42.717,62.229l0.332,1.285l-0.332,1.285l-0.332-1.285L42.717,62.229z M43.002,61.125l0.332-1.285l0.332,1.285l-0.332,1.285   L43.002,61.125z M43.952,62.229l0.331,1.281l-0.332,1.285l-0.331-1.281L43.952,62.229z M43.952,60.021l-0.332-1.287l0.332-1.283   l0.332,1.285L43.952,60.021z M43.334,57.631l-0.332-1.285l0.332-1.285l0.332,1.285L43.334,57.631z M43.049,58.734l-0.332,1.287   l-0.332-1.285l0.332-1.285L43.049,58.734z M42.1,57.633l-0.332-1.285l0.332-1.287l0.332,1.285L42.1,57.633z M41.815,58.736   l-0.332,1.285l-0.332-1.285l0.332-1.285L41.815,58.736z M40.866,57.633l-0.332-1.285l0.332-1.285l0.332,1.285L40.866,57.633z    M40.581,58.736l-0.332,1.285l-0.333-1.285l0.333-1.285L40.581,58.736z M39.964,61.125l-0.332,1.285L39.3,61.125l0.332-1.285   L39.964,61.125z M39.347,63.514l-0.332,1.287l-0.332-1.285l0.332-1.287L39.347,63.514z M38.397,62.412l-0.333-1.287l0.333-1.287   l0.332,1.287L38.397,62.412z M38.112,63.516l-0.332,1.283l-0.333-1.285l0.332-1.285L38.112,63.516z M37.781,67.008l0.332,1.285   l-0.332,1.283l-0.332-1.285L37.781,67.008z M38.066,65.902l0.332-1.283l0.332,1.285l-0.332,1.283L38.066,65.902z M39.015,67.008   l0.332,1.285l-0.332,1.285l-0.332-1.287L39.015,67.008z M39.299,65.904l0.333-1.287l0.332,1.285l-0.333,1.287L39.299,65.904z    M40.249,67.008l0.332,1.283l-0.332,1.287l-0.333-1.285L40.249,67.008z M40.534,65.902l0.332-1.285l0.332,1.285l-0.332,1.285   L40.534,65.902z M41.483,67.008l0.332,1.283l-0.332,1.285l-0.332-1.285L41.483,67.008z M41.769,65.902l0.332-1.283l0.332,1.283   L42.1,67.189L41.769,65.902z M43.002,65.904l0.332-1.285l0.331,1.281l-0.332,1.285L43.002,65.904z M44.235,65.898l0.332-1.285   l0.333,1.289l-0.332,1.285L44.235,65.898z M45.186,67.006l0.156,0.604l-0.332,1.287l-0.157-0.605L45.186,67.006z M46.418,67.004   l0.157,0.607l-0.331,1.285l-0.157-0.607L46.418,67.004z M47.654,67.008l0.156,0.604l-0.333,1.285l-0.156-0.605L47.654,67.008z    M48.888,67.002l0.157,0.607l-0.332,1.287l-0.157-0.607L48.888,67.002z M50.122,67.004l0.156,0.604l-0.333,1.285l-0.156-0.604   L50.122,67.004z M51.356,67.004l0.155,0.604l-0.331,1.285l-0.156-0.604L51.356,67.004z M52.59,67.002l0.157,0.605l-0.332,1.287   l-0.156-0.605L52.59,67.002z M53.364,65.219l-0.332,1.287l-0.157-0.607l0.332-1.285L53.364,65.219z M52.13,65.217l-0.332,1.287   L51.642,65.9l0.332-1.287L52.13,65.217z M51.513,62.83l-0.332,1.285l-0.156-0.605l0.332-1.285L51.513,62.83z M50.319,62.988   l-0.105,0.098l-0.267,1.033L49.79,63.51l0.332-1.285L50.319,62.988z M49.505,59.84l0.332,1.281l-0.333,1.285l-0.331-1.281   L49.505,59.84z M48.604,61.125l-0.332,1.285l-0.333-1.289l0.332-1.285L48.604,61.125z M47.654,57.449l0.332,1.283l-0.332,1.285   l-0.332-1.283L47.654,57.449z M46.752,58.734l-0.332,1.287l-0.333-1.289l0.333-1.287L46.752,58.734z M45.803,55.061l0.331,1.281   l-0.333,1.287l-0.331-1.281L45.803,55.061z M44.9,56.348l-0.332,1.285l-0.332-1.287l0.332-1.285L44.9,56.348z M43.952,52.672   l0.332,1.285l-0.332,1.285l-0.332-1.285L43.952,52.672z M43.049,53.957l-0.332,1.285l-0.332-1.285l0.332-1.285L43.049,53.957z    M42.1,50.284l0.332,1.285L42.1,52.854l-0.332-1.285L42.1,50.284z M41.483,52.672l0.332,1.285l-0.332,1.287l-0.332-1.285   L41.483,52.672z M40.249,52.672l0.332,1.287l-0.332,1.285l-0.333-1.287L40.249,52.672z M39.631,55.061l0.333,1.287l-0.332,1.285   l-0.333-1.287L39.631,55.061z M39.015,57.451l0.332,1.285l-0.332,1.285l-0.332-1.287L39.015,57.451z M37.781,57.451l0.332,1.283   l-0.332,1.287l-0.333-1.285L37.781,57.451z M37.163,59.842l0.332,1.283l-0.331,1.285l-0.333-1.285L37.163,59.842z M35.929,59.84   l0.332,1.285l-0.332,1.285l-0.332-1.285L35.929,59.84z M35.312,62.229l0.332,1.285l-0.331,1.283L34.98,63.51L35.312,62.229z    M34.695,64.615l0.332,1.285l-0.333,1.287l-0.332-1.285L34.695,64.615z M34.409,68.291l-0.331,1.283l-0.332-1.285l0.331-1.281   L34.409,68.291z M33.46,64.617l0.332,1.285l-0.332,1.281l-0.332-1.285L33.46,64.617z M32.844,67.004l0.332,1.285l-0.333,1.287   l-0.332-1.285L32.844,67.004z M30.991,71.967l-0.331-1.285l0.333-1.287l0.332,1.283L30.991,71.967z M32.227,71.963l-0.333-1.285   l0.332-1.281l0.332,1.285L32.227,71.963z M33.46,71.967l-0.332-1.285l0.332-1.289l0.332,1.285L33.46,71.967z M34.695,71.963   l-0.332-1.285l0.332-1.281l0.332,1.285L34.695,71.963z M35.929,71.967l-0.333-1.285l0.333-1.289l0.333,1.287L35.929,71.967z    M37.164,71.963l-0.332-1.283l0.332-1.283l0.332,1.285L37.164,71.963z M38.397,71.967l-0.332-1.285l0.332-1.285l0.332,1.285   L38.397,71.967z M39.632,71.967L39.3,70.682l0.332-1.285l0.333,1.285L39.632,71.967z M40.939,71.684l-0.119,0.109l-0.286-1.111   l0.332-1.285l0.332,1.285L40.939,71.684z M41.769,70.682l0.332-1.285l0.252,0.977l-0.253,0.234l-0.175,0.678L41.769,70.682z    M43.001,70.678l0.332-1.285l0.157,0.605l-0.332,1.287L43.001,70.678z M44.236,70.682l0.332-1.285L44.725,70l-0.332,1.285   L44.236,70.682z M45.47,70.678l0.332-1.285L45.959,70l-0.333,1.285L45.47,70.678z M46.705,70.682l0.332-1.285L47.193,70   l-0.332,1.285L46.705,70.682z M47.938,70.678l0.332-1.285L48.427,70l-0.333,1.285L47.938,70.678z M49.173,70.68l0.332-1.287   l0.156,0.605l-0.332,1.285L49.173,70.68z M50.407,70.678l0.333-1.285l0.156,0.604l-0.332,1.285L50.407,70.678z M51.642,70.678   l0.332-1.285l0.156,0.605l-0.331,1.287L51.642,70.678z M52.875,70.678l0.332-1.287l0.157,0.605l-0.333,1.287L52.875,70.678z    M54.111,70.68l0.332-1.283l0.155,0.602l-0.331,1.287L54.111,70.68z M55.345,70.678l0.331-1.285l0.156,0.604L55.5,71.281   L55.345,70.678z M56.578,70.678l0.333-1.285l0.155,0.604l-0.332,1.285L56.578,70.678z"/><polygon points="9.438,67.178 11.079,73.531 11.649,73.531 9.866,66.627  "/><polygon points="11.291,64.793 13.548,73.531 14.118,73.531 11.719,64.242  "/><polygon points="12.217,63.602 14.782,73.531 15.352,73.531 12.645,63.051  "/><polygon points="10.365,65.986 12.313,73.531 12.884,73.531 10.792,65.436  "/><polygon points="13.144,62.41 16.017,73.531 16.587,73.531 13.571,61.857  "/><polygon points="14.07,61.217 17.25,73.531 17.821,73.531 14.498,60.666  "/><polygon points="6.659,70.756 7.376,73.531 7.947,73.531 7.087,70.205  "/><polygon points="5.734,71.945 6.144,73.531 6.715,73.531 6.162,71.395  "/><polygon points="4.807,73.141 4.908,73.531 5.479,73.531 5.235,72.588  "/><polygon points="8.511,68.371 9.845,73.531 10.415,73.531 8.94,67.82  "/><polygon points="14.995,60.025 18.484,73.531 19.055,73.531 15.424,59.473  "/><polygon points="7.586,69.561 8.612,73.531 9.183,73.531 8.015,69.01  "/><polygon points="21.479,51.678 27.124,73.531 27.695,73.531 21.908,51.127  "/><polygon points="15.922,58.832 19.718,73.531 20.289,73.531 16.35,58.281  "/><polygon points="20.554,52.871 25.891,73.531 26.461,73.531 20.981,52.318  "/><polygon points="16.849,57.641 20.953,73.531 21.524,73.531 17.276,57.088  "/><polygon points="17.775,56.447 22.188,73.531 22.758,73.531 18.203,55.896  "/><polygon points="18.701,55.256 23.421,73.531 23.992,73.531 19.128,54.705  "/><polygon points="19.627,54.062 24.656,73.531 25.227,73.531 20.055,53.512  "/><polygon points="73.945,49.021 73.452,50.931 73.14,50.778 67.262,73.531 67.831,73.531 68.185,73.531 74.289,49.896  "/><polygon points="73.544,48.002 73.2,47.127 72.356,50.395 72.044,50.241 66.027,73.531 66.598,73.531 66.598,73.531 66.95,73.531     "/><polygon points="74.69,50.915 74.547,51.469 74.234,51.314 68.496,73.531 68.849,73.531 69.065,73.531 69.419,73.531    75.034,51.789  "/><polygon points="72.799,46.109 72.455,45.234 71.261,49.856 70.948,49.703 64.793,73.531 65.363,73.531 65.363,73.531    65.717,73.531  "/><polygon points="75.567,53.143 75.836,52.1 75.33,51.852 69.73,73.531 70.081,73.531 70.301,73.531 70.651,73.531 75.779,53.682     "/><polygon points="76.312,55.035 76.851,52.953 76.411,52.447 70.965,73.531 71.316,73.531 71.535,73.531 71.887,73.531    76.524,55.574  "/><polygon points="72.054,44.214 71.71,43.34 70.166,49.319 69.853,49.166 63.559,73.531 64.129,73.531 64.129,73.531 64.481,73.531     "/><polygon points="70.563,40.427 70.22,39.553 67.975,48.246 67.662,48.091 61.091,73.531 61.661,73.531 61.661,73.531    62.013,73.531  "/><polygon points="71.31,42.321 70.965,41.446 69.07,48.782 68.757,48.628 62.324,73.531 62.894,73.531 62.894,73.531 63.247,73.531     "/><polygon points="69.818,38.533 69.687,38.197 69.226,38.624 66.879,47.708 66.83,47.683 66.439,48.045 59.856,73.531    60.426,73.531 60.426,73.531 60.778,73.531  "/><polygon points="81.739,68.83 81.526,68.289 83.507,60.621 83.068,60.115 79.604,73.531 80.173,73.531 80.173,73.529    80.524,73.529  "/><polygon points="80.994,66.936 80.782,66.396 82.557,59.527 82.118,59.021 78.368,73.531 78.938,73.531 78.938,73.529    79.292,73.529  "/><polygon points="82.484,70.723 82.272,70.182 84.458,61.719 84.02,61.211 80.837,73.531 81.407,73.531 81.407,73.529 81.76,73.529     "/><polygon points="80.249,65.043 80.036,64.502 81.605,58.43 81.166,57.924 77.134,73.531 77.704,73.531 77.704,73.529    78.057,73.529  "/><polygon points="77.058,56.93 77.801,54.049 77.362,53.543 72.198,73.531 72.549,73.531 72.769,73.531 73.119,73.531    77.269,57.467  "/><polygon points="78.015,59.363 77.802,58.822 78.752,55.145 78.312,54.637 73.433,73.531 74.003,73.531 74.003,73.529    74.356,73.529  "/><polygon points="78.76,61.258 78.548,60.717 79.704,56.24 79.264,55.734 74.668,73.531 75.238,73.531 75.238,73.529 75.591,73.529     "/><polygon points="79.504,63.148 79.292,62.611 80.655,57.336 80.216,56.83 75.901,73.531 76.473,73.531 76.473,73.529    76.822,73.529  "/><polygon points="91.945,73.529 92.516,73.529 93.019,71.578 92.58,71.072  "/><polygon points="89.727,67.785 88.242,73.529 88.812,73.529 90.166,68.291  "/><polygon points="91.629,69.979 90.712,73.529 91.282,73.529 92.068,70.484  "/><polygon points="94.482,73.264 94.413,73.529 94.713,73.529  "/><polygon points="93.18,73.529 93.749,73.529 93.971,72.676 93.531,72.17  "/><polygon points="85.921,63.402 83.305,73.531 83.876,73.531 86.361,63.908  "/><polygon points="88.775,66.691 87.008,73.529 87.579,73.529 89.215,67.197  "/><polygon points="85.41,62.814 84.971,62.307 82.072,73.531 82.644,73.531 82.644,73.529 82.993,73.529 83.229,72.617    83.019,72.078  "/><polygon points="86.873,64.498 84.54,73.531 85.11,73.529 87.312,65.004  "/><polygon points="87.824,65.594 85.773,73.529 86.345,73.529 88.264,66.1  "/><polygon points="90.678,68.881 89.477,73.529 90.047,73.529 91.116,69.387  "/></g></g><g id="SvgjsG1179" featureKey="ujU5uU-0" transform="matrix(2.2459251262661355,0,0,2.2459251262661355,91.46323342966113,18.14151057833874)" fill="#fff"><path d="M15.04 5.42 l2.2 0 l0 14.58 l-1.52 0 l0 -12.5 l0 0 l-5.42 12.5 l-1.38 0 l-5.38 -12.4 l0 0 l0 12.4 l-1.52 0 l0 -14.58 l2.18 0 l5.44 12.5 z M34.94 12.68 c0 1.38 -0.32 2.64 -0.94 3.78 c-0.64 1.14 -1.52 2.04 -2.64 2.7 c-1.14 0.66 -2.38 1 -3.78 1 c-1.02 0 -1.98 -0.2 -2.9 -0.58 c-0.9 -0.38 -1.68 -0.9 -2.32 -1.58 c-0.64 -0.64 -1.14 -1.42 -1.52 -2.34 c-0.36 -0.92 -0.56 -1.88 -0.56 -2.9 c0 -1.38 0.32 -2.64 0.96 -3.78 c0.62 -1.14 1.5 -2.06 2.64 -2.72 c1.12 -0.66 2.38 -0.98 3.76 -0.98 c1.02 0 1.98 0.18 2.9 0.56 c0.9 0.4 1.68 0.92 2.32 1.56 c0.64 0.68 1.16 1.46 1.52 2.36 c0.38 0.92 0.56 1.88 0.56 2.92 z M33.36 12.76 c0 -1.64 -0.6 -3.16 -1.6 -4.26 s-2.5 -1.8 -4.18 -1.8 c-1.08 0 -2.06 0.28 -2.94 0.8 c-0.88 0.56 -1.56 1.28 -2.04 2.18 c-0.48 0.92 -0.72 1.92 -0.72 3 c0 1.62 0.6 3.16 1.6 4.24 c1 1.1 2.5 1.8 4.16 1.8 c1.08 0 2.06 -0.28 2.94 -0.82 c0.9 -0.52 1.58 -1.26 2.06 -2.16 s0.72 -1.9 0.72 -2.98 z M48.339999999999996 5.42 l1.5 0 l0 14.58 l-1.66 0 l-8.7 -12.4 l0 12.4 l-1.52 0 l0 -14.58 l1.78 0 l8.6 12.26 l0 -12.26 z M58.67999999999999 6.859999999999999 l0 13.14 l-1.52 0 l0 -13.14 l-4.88 0 l0 -1.44 l11.28 0 l0 1.44 l-4.88 0 z M65.97999999999999 20 l0 -14.58 l1.54 0 l0 14.58 l-1.54 0 z M83.39999999999999 5.42 l-5.86 14.58 l-1.7 0 l-5.86 -14.58 l1.68 0 l5.04 12.86 l5.06 -12.86 l1.64 0 z M85.85999999999999 20 l0 -14.58 l9.12 0 l0 1.42 l-7.58 0 l0 5.04 l6.94 0 l0 1.42 l-6.94 0 l0 5.28 l7.66 0 l0 1.42 l-9.2 0 z M108.89999999999999 20 l-1.86 0 l-4.32 -5.9 l-2.96 0 l0 5.9 l-1.54 0 l0 -14.58 l5.06 0 c1.72 0 3.1 0.48 3.9 1.28 s1.22 1.8 1.22 2.98 c0 2.46 -1.84 3.88 -4 4.16 z M99.75999999999999 6.859999999999999 l0 5.84 l3.38 0 c1.28 0 2.28 -0.36 2.86 -0.94 c0.56 -0.56 0.84 -1.26 0.84 -2.04 c0 -1.44 -0.88 -2.86 -3.66 -2.86 l-3.42 0 z M122.36 20 l-1.6 -3.72 l-7.94 0 l-1.6 3.72 l-1.56 0 l6.28 -14.58 l1.74 0 l6.3 14.58 l-1.62 0 z M120.17999999999999 14.879999999999999 l-3.4 -7.88 l-3.38 7.88 l6.78 0 z"/></g>
			</g>
		</svg>
	